#!OML:ASF X:\für Bonn\!DataBase\2005_08_11_Bastian_Final\c3d\Bastian.ASF
:FULLY-SPECIFIED
:DEGREES
370
root 21.6094 17.241 -1.71145 363.136 -65.9334 6.05213
lowerback 58.74 2.19051 6.12452
upperback 16.5371 3.16793 -0.277936
thorax -2.42241 0.958327 -4.18527
lowerneck -9.41809 -10.035 1.56233
upperneck -26.2528 -11.8912 17.4112
head -5.41119 -7.90429 5.53909
rclavicle -6.36111e-015 5.84427e-014
rhumerus 47.3607 42.8263 -38.3007
rradius 28.7331
rwrist -12.7937
rhand -28.3335 -1.06902
rfingers 7.12502
rthumb -1.708 -31.0419
lclavicle -6.36111e-015 5.84427e-014
lhumerus -8.67478 -23.4671 85.3254
lradius 29.3257
lwrist 29.4052
lhand -12.7368 -13.3624
lfingers 7.12502
lthumb 13.3469 16.1901
rfemur -29.3322 -7.59363 20.2513
rtibia 47.4452
rfoot -18.5226 -11.4083
rtoes -1.55588
lfemur -29.9392 -3.55275 -23.7144
ltibia 35.0974
lfoot -5.21144 -12.323
ltoes -11.2268
371
root 21.5483 17.2489 -1.6914 363.135 -66.0841 5.56828
lowerback 58.0477 2.36055 5.85852
upperback 16.6028 3.20327 -0.204638
thorax -2.34253 0.957403 -4.01011
lowerneck -9.60661 -10.0078 1.30008
upperneck -25.9442 -11.861 17.5439
head -5.24966 -7.84284 5.58278
rclavicle 2.8625e-014 3.57812e-014
rhumerus 46.6068 43.7723 -38.5987
rradius 28.8359
rwrist -12.7163
rhand -28.0517 -0.943675
rfingers 7.12502
rthumb -1.43585 -30.9186
lclavicle 2.8625e-014 3.57812e-014
lhumerus -8.67281 -23.3232 85.2993
lradius 29.0473
lwrist 29.4052
lhand -12.7553 -13.1782
lfingers 7.12502
lthumb 13.3291 16.3755
rfemur -28.4476 -7.48692 20.4035
rtibia 47.1577
rfoot -18.597 -11.411
rtoes -1.93628
lfemur -29.1599 -3.5654 -23.4666
ltibia 35.0837
lfoot -5.57887 -12.1957
ltoes -11.3145
372
root 21.4857 17.2583 -1.67065 363.061 -66.2318 5.14422
lowerback 57.3779 2.51202 5.61392
upperback 16.6506 3.23485 -0.160646
thorax -2.27656 0.959156 -3.87374
lowerneck -9.68838 -9.98385 1.1548
upperneck -25.7577 -11.8329 17.6234
head -5.15943 -7.8012 5.60938
rclavicle -5.24792e-014 3.69739e-014
rhumerus 45.5582 44.6081 -39.2019
rradius 28.9828
rwrist -12.5884
rhand -27.758 -0.819659
rfingers 7.12502
rthumb -1.1522 -30.7963
lclavicle -5.24792e-014 3.69739e-014
lhumerus -8.68741 -23.2441 85.25
lradius 28.7706
lwrist 29.4497
lhand -12.8159 -12.9512
lfingers 7.12502
lthumb 13.2706 16.6063
rfemur -27.5651 -7.35882 20.5237
rtibia 46.9139
rfoot -18.6485 -11.4308
rtoes -2.5562
lfemur -28.3358 -3.56871 -23.2498
ltibia 35.0341
lfoot -5.91002 -12.0591
ltoes -11.0256
373
root 21.4225 17.2664 -1.65084 362.891 -66.3849 4.81956
lowerback 56.6963 2.66806 5.35945
upperback 16.7298 3.26311 -0.143767
thorax -2.16972 0.963224 -3.75972
lowerneck -9.76622 -9.95596 1.0929
upperneck -25.6388 -11.8008 17.6891
head -5.10033 -7.77023 5.62541
rclavicle 7.4743e-014 -2.8625e-014
rhumerus 44.373 45.2709 -40.0311
rradius 29.097
rwrist -12.2769
rhand -27.4119 -0.692605
rfingers 7.12502
rthumb -0.817894 -30.6708
lclavicle 7.4743e-014 -2.8625e-014
lhumerus -8.65915 -23.2093 85.1379
lradius 28.5583
lwrist 29.5063
lhand -12.8221 -12.7099
lfingers 7.12502
lthumb 13.2647 16.8481
rfemur -26.7115 -7.27448 20.6098
rtibia 46.7296
rfoot -18.7056 -11.4038
rtoes -3.21869
lfemur -27.4932 -3.58546 -23.0799
ltibia 34.9646
lfoot -6.22843 -11.8961
ltoes -10.9911
374
root 21.3576 17.2764 -1.6294 362.718 -66.5446 4.47754
lowerback 56.0417 2.81331 5.13002
upperback 16.7954 3.29796 -0.13179
thorax -2.0727 0.971614 -3.66318
lowerneck -9.71625 -9.93484 1.08059
upperneck -25.6464 -11.7661 17.7342
head -5.10858 -7.75397 5.64528
rclavicle 4.77083e-015 -6.75868e-015
rhumerus 43.0665 45.8835 -40.9806
rradius 29.1691
rwrist -11.887
rhand -27.1185 -0.562027
rfingers 7.12502
rthumb -0.534557 -30.5411
lclavicle 4.77083e-015 -6.75868e-015
lhumerus -8.63641 -23.1884 85.0419
lradius 28.3408
lwrist 29.6023
lhand -12.891 -12.4268
lfingers 7.12502
lthumb 13.1983 17.1354
rfemur -25.8502 -7.15951 20.6888
rtibia 46.5886
rfoot -18.7951 -11.3854
rtoes -3.72942
lfemur -26.6087 -3.55194 -22.9211
ltibia 34.8784
lfoot -6.56903 -11.7805
ltoes -10.9672
375
root 21.292 17.2835 -1.60842 362.547 -66.6849 4.14261
lowerback 55.3646 2.94239 4.91177
upperback 16.8896 3.3211 -0.1093
thorax -1.93809 0.975197 -3.55423
lowerneck -9.80055 -9.90913 1.06254
upperneck -25.5652 -11.7443 17.7598
head -5.067 -7.73257 5.64493
rclavicle -1.59028e-014 5.24792e-014
rhumerus 41.8362 46.4364 -41.839
rradius 29.2184
rwrist -11.5433
rhand -26.8189 -0.424869
rfingers 7.12502
rthumb -0.24519 -30.4045
lclavicle -1.59028e-014 5.24792e-014
lhumerus -8.54825 -23.1234 84.9458
lradius 28.1447
lwrist 29.5897
lhand -12.9371 -12.067
lfingers 7.12502
lthumb 13.1538 17.4981
rfemur -25.0238 -7.03344 20.7611
rtibia 46.4974
rfoot -18.8525 -11.3885
rtoes -4.31415
lfemur -25.7401 -3.51505 -22.7619
ltibia 34.7901
lfoot -6.87164 -11.7053
ltoes -10.681
376
root 21.2259 17.2898 -1.5874 362.367 -66.8303 3.81557
lowerback 54.7401 3.0481 4.73238
upperback 16.9398 3.34446 -0.125697
thorax -1.84766 0.983811 -3.50393
lowerneck -9.85392 -9.90967 1.06761
upperneck -25.4766 -11.7536 17.8084
head -5.02546 -7.72975 5.64878
rclavicle 8.90555e-014 -4.92986e-014
rhumerus 40.4273 46.9497 -42.8809
rradius 29.2729
rwrist -11.2146
rhand -26.5255 -0.366298
rfingers 7.12502
rthumb 0.0381826 -30.346
lclavicle 8.90555e-014 -4.92986e-014
lhumerus -8.51641 -23.0841 84.8221
lradius 27.9887
lwrist 29.5384
lhand -12.9983 -11.6894
lfingers 7.12502
lthumb 13.0948 17.8795
rfemur -24.2224 -6.90952 20.8366
rtibia 46.4526
rfoot -18.9073 -11.3839
rtoes -4.93079
lfemur -24.8624 -3.47806 -22.6127
ltibia 34.7008
lfoot -7.18375 -11.6125
ltoes -10.5297
